<svg width="37" height="36" viewBox="0 0 37 36" fill="none" xmlns="http://www.w3.org/2000/svg">
<path d="M35.2656 0H34.6875V1.84786C34.6875 2.45765 34.2973 2.95657 33.8203 2.95657H30.9297C30.4527 2.95657 30.0625 2.45765 30.0625 1.84786V0H6.9375V1.84786C6.9375 2.45765 6.54727 2.95657 6.07031 2.95657H3.17969C2.70273 2.95657 2.3125 2.45765 2.3125 1.84786V0H1.73438C0.773242 0 0 0.988604 0 2.21743V33.2615C0 34.4903 0.773242 35.4789 1.73438 35.4789H2.3125V33.631C2.3125 33.0212 2.70273 32.5223 3.17969 32.5223H6.07031C6.54727 32.5223 6.9375 33.0212 6.9375 33.631V35.4789H30.0625V33.631C30.0625 33.0212 30.4527 32.5223 30.9297 32.5223H33.8203C34.2973 32.5223 34.6875 33.0212 34.6875 33.631V35.4789H35.2656C36.2268 35.4789 37 34.4903 37 33.2615V2.21743C37 0.988604 36.2268 0 35.2656 0ZM6.9375 28.457C6.9375 29.0668 6.54727 29.5657 6.07031 29.5657H3.17969C2.70273 29.5657 2.3125 29.0668 2.3125 28.457V24.7613C2.3125 24.1515 2.70273 23.6526 3.17969 23.6526H6.07031C6.54727 23.6526 6.9375 24.1515 6.9375 24.7613V28.457ZM6.9375 19.5873C6.9375 20.1971 6.54727 20.696 6.07031 20.696H3.17969C2.70273 20.696 2.3125 20.1971 2.3125 19.5873V15.8916C2.3125 15.2818 2.70273 14.7829 3.17969 14.7829H6.07031C6.54727 14.7829 6.9375 15.2818 6.9375 15.8916V19.5873ZM6.9375 10.7176C6.9375 11.3274 6.54727 11.8263 6.07031 11.8263H3.17969C2.70273 11.8263 2.3125 11.3274 2.3125 10.7176V7.02186C2.3125 6.41207 2.70273 5.91315 3.17969 5.91315H6.07031C6.54727 5.91315 6.9375 6.41207 6.9375 7.02186V10.7176ZM26.5938 29.9353C26.5938 30.5451 26.2035 31.044 25.7266 31.044H11.2734C10.7965 31.044 10.4062 30.5451 10.4062 29.9353V21.0656C10.4062 20.4558 10.7965 19.9569 11.2734 19.9569H25.7266C26.2035 19.9569 26.5938 20.4558 26.5938 21.0656V29.9353ZM26.5938 14.4133C26.5938 15.0231 26.2035 15.522 25.7266 15.522H11.2734C10.7965 15.522 10.4062 15.0231 10.4062 14.4133V5.54358C10.4062 4.93378 10.7965 4.43486 11.2734 4.43486H25.7266C26.2035 4.43486 26.5938 4.93378 26.5938 5.54358V14.4133ZM34.6875 28.457C34.6875 29.0668 34.2973 29.5657 33.8203 29.5657H30.9297C30.4527 29.5657 30.0625 29.0668 30.0625 28.457V24.7613C30.0625 24.1515 30.4527 23.6526 30.9297 23.6526H33.8203C34.2973 23.6526 34.6875 24.1515 34.6875 24.7613V28.457ZM34.6875 19.5873C34.6875 20.1971 34.2973 20.696 33.8203 20.696H30.9297C30.4527 20.696 30.0625 20.1971 30.0625 19.5873V15.8916C30.0625 15.2818 30.4527 14.7829 30.9297 14.7829H33.8203C34.2973 14.7829 34.6875 15.2818 34.6875 15.8916V19.5873ZM34.6875 10.7176C34.6875 11.3274 34.2973 11.8263 33.8203 11.8263H30.9297C30.4527 11.8263 30.0625 11.3274 30.0625 10.7176V7.02186C30.0625 6.41207 30.4527 5.91315 30.9297 5.91315H33.8203C34.2973 5.91315 34.6875 6.41207 34.6875 7.02186V10.7176Z" fill="black"/>
</svg>
