<svg width="26" height="25" viewBox="0 0 26 25" fill="none" xmlns="http://www.w3.org/2000/svg">
<path d="M13.0029 6.09032C9.31389 6.09032 6.33832 8.95208 6.33832 12.5C6.33832 16.0479 9.31389 18.9097 13.0029 18.9097C16.6919 18.9097 19.6675 16.0479 19.6675 12.5C19.6675 8.95208 16.6919 6.09032 13.0029 6.09032ZM13.0029 16.6671C10.619 16.6671 8.67005 14.7983 8.67005 12.5C8.67005 10.2017 10.6132 8.33287 13.0029 8.33287C15.3926 8.33287 17.3358 10.2017 17.3358 12.5C17.3358 14.7983 15.3868 16.6671 13.0029 16.6671ZM21.4946 5.82813C21.4946 6.65932 20.7986 7.32316 19.9401 7.32316C19.0759 7.32316 18.3856 6.65374 18.3856 5.82813C18.3856 5.00251 19.0817 4.33309 19.9401 4.33309C20.7986 4.33309 21.4946 5.00251 21.4946 5.82813ZM25.9086 7.34548C25.81 5.3428 25.3344 3.56884 23.8089 2.10727C22.2892 0.64571 20.4447 0.188274 18.3624 0.0878612C16.2163 -0.0292871 9.78371 -0.0292871 7.63759 0.0878612C5.56107 0.182696 3.71656 0.640132 2.19108 2.1017C0.665588 3.56326 0.195761 5.33722 0.0913553 7.3399C-0.0304518 9.40394 -0.0304518 15.5905 0.0913553 17.6545C0.189961 19.6572 0.665588 21.4312 2.19108 22.8927C3.71656 24.3543 5.55527 24.8117 7.63759 24.9121C9.78371 25.0293 16.2163 25.0293 18.3624 24.9121C20.4447 24.8173 22.2892 24.3599 23.8089 22.8927C25.3286 21.4312 25.8042 19.6572 25.9086 17.6545C26.0305 15.5905 26.0305 9.40952 25.9086 7.34548ZM23.1361 19.8692C22.6837 20.9626 21.8078 21.8049 20.6651 22.2456C18.954 22.8983 14.8938 22.7477 13.0029 22.7477C11.112 22.7477 7.04596 22.8927 5.34066 22.2456C4.20379 21.8105 3.32794 20.9681 2.86972 19.8692C2.19108 18.2235 2.34769 14.3186 2.34769 12.5C2.34769 10.6814 2.19688 6.77089 2.86972 5.13082C3.32214 4.03743 4.19799 3.19508 5.34066 2.75438C7.05176 2.1017 11.112 2.25232 13.0029 2.25232C14.8938 2.25232 18.9598 2.10727 20.6651 2.75438C21.802 3.1895 22.6779 4.03185 23.1361 5.13082C23.8147 6.77647 23.6581 10.6814 23.6581 12.5C23.6581 14.3186 23.8147 18.2291 23.1361 19.8692Z" fill="black"/>
</svg>
